# xmcd CD database file generated by Grip 2.95
# 
# Track frame offsets:
#       150
#       11370
#       26127
#       40202
#       56765
#       79417
#       93505
#       107362
#       120477
#       133342
#       153880
#       168170
# 
# Disc length: 2482 seconds
# 
# Revision: 3
# Processed by: cddbd v1.4PL0 Copyright (c) Steve Scherf et al.
# Submitted via: Grip 2.95
# 
DISCID=9109b00c
DTITLE=Ella Fitzgerald - Great Ella
DYEAR=1900
DGENRE=
TTITLE0=Flying Home
TTITLE1=How High The Moon
TTITLE2=Basin street blues
TTITLE3=Moonlight in vermont
TTITLE4=Tenderly
TTITLE5=Smooth sailing
TTITLE6=Air mail special
TTITLE7=Angel eyes
TTITLE8=Lullaby of Birdland
TTITLE9=A foggy Day
TTITLE10=Oh lady be good
TTITLE11=Oh, Johnny
EXTD=
EXTT0=
EXTT1=
EXTT2=
EXTT3=
EXTT4=
EXTT5=
EXTT6=
EXTT7=
EXTT8=
EXTT9=
EXTT10=
EXTT11=
PLAYORDER=
